# xmcd
#
# Track frame offsets: 
#        150
#        15037
#        30157
#        42397
#        57078
#        79505
#        95138
#        116587
#        133491
#        149474
#        161280
#        181067
#        202508
#        216928
#        234816
#        245868
#        261468
#        275179
#        287108
#        308404
#
# Disc length: 4380 seconds
#
# Revision: 0
# Processed by: cddbd v1.5.2PL0 Copyright (c) Steve Scherf et al.
# Submitted via: ExactAudioCopy v1.1
#
DISCID=13111a14
DTITLE=The Bottle Rockets - The Brooklyn Side
DYEAR=1994
DGENRE=Country
TTITLE0=Welfare Music
TTITLE1=Gravity Fails
TTITLE2=I'll Be Comin' Around
TTITLE3=Radar Gun
TTITLE4=Sunday Sports
TTITLE5=Pot Of Gold
TTITLE6=1000 Dollar Car
TTITLE7=Idiot's Revenge
TTITLE8=Young Lovers In Town
TTITLE9=Take Me To The Bank
TTITLE10=What More Can I Do?
TTITLE11=Stuck In A Rut
TTITLE12=I Wanna Come Home
TTITLE13=Queen Of The World
TTITLE14=This Is What It Sounds Like When You're Listening To Lindsey 
TTITLE14=Buckingham
TTITLE15=Building Chryslers (1994 Acoustic Demo)
TTITLE16=Smokin' 100's Alone (1994 Acoustic Demo)
TTITLE17=Truck Driving Man
TTITLE18=Welfare Music (1994 Live at Mercury Lounge)
TTITLE19=Farmer John (1994 Live at Mercury Lounge)
EXTD=
EXTT0=
EXTT1=
EXTT2=
EXTT3=
EXTT4=
EXTT5=
EXTT6=
EXTT7=
EXTT8=
EXTT9=
EXTT10=
EXTT11=
EXTT12=
EXTT13=
EXTT14=
EXTT15=
EXTT16=
EXTT17=
EXTT18=
EXTT19=
PLAYORDER=
